<mxfile host="65bd71144e">
    <diagram id="fV_4TXNlkp2ETD88akPX" name="PÃ¡gina-1">
        <mxGraphModel dx="801" dy="354" grid="1" gridSize="10" guides="1" tooltips="1" connect="1" arrows="1" fold="1" page="1" pageScale="1" pageWidth="127700" pageHeight="167700" math="0" shadow="0">
            <root>
                <mxCell id="0"/>
                <mxCell id="1" parent="0"/>
                <mxCell id="7" style="edgeStyle=none;html=1;entryX=0.5;entryY=0;entryDx=0;entryDy=0;" edge="1" parent="1" source="2" target="6">
                    <mxGeometry relative="1" as="geometry">
                        <mxPoint x="520" y="120" as="targetPoint"/>
                    </mxGeometry>
                </mxCell>
                <mxCell id="2" value="INICIO" style="ellipse;whiteSpace=wrap;html=1;fillColor=#1ba1e2;fontColor=#ffffff;strokeColor=#006EAF;" vertex="1" parent="1">
                    <mxGeometry x="570" width="120" height="80" as="geometry"/>
                </mxCell>
                <mxCell id="12" style="edgeStyle=none;html=1;" edge="1" parent="1" source="5" target="13">
                    <mxGeometry relative="1" as="geometry">
                        <mxPoint x="520" y="480" as="targetPoint"/>
                    </mxGeometry>
                </mxCell>
                <mxCell id="48" style="edgeStyle=none;html=1;" edge="1" parent="1" source="5" target="49">
                    <mxGeometry relative="1" as="geometry">
                        <mxPoint x="900" y="520" as="targetPoint"/>
                        <Array as="points">
                            <mxPoint x="900" y="450"/>
                        </Array>
                    </mxGeometry>
                </mxCell>
                <mxCell id="5" value="for j in range(N)" style="rhombus;whiteSpace=wrap;html=1;fillColor=#a0522d;fontColor=#ffffff;strokeColor=#6D1F00;" vertex="1" parent="1">
                    <mxGeometry x="510" y="420" width="240" height="60" as="geometry"/>
                </mxCell>
                <mxCell id="10" value="" style="edgeStyle=none;html=1;" edge="1" parent="1" source="6" target="9">
                    <mxGeometry relative="1" as="geometry"/>
                </mxCell>
                <mxCell id="6" value="N" style="shape=parallelogram;perimeter=parallelogramPerimeter;whiteSpace=wrap;html=1;fixedSize=1;fillColor=#60a917;fontColor=#ffffff;strokeColor=#2D7600;" vertex="1" parent="1">
                    <mxGeometry x="570" y="140" width="120" height="60" as="geometry"/>
                </mxCell>
                <mxCell id="11" value="" style="edgeStyle=none;html=1;" edge="1" parent="1" source="9" target="5">
                    <mxGeometry relative="1" as="geometry"/>
                </mxCell>
                <mxCell id="9" value="&lt;div style=&quot;color: rgb(212 , 212 , 212) ; background-color: rgb(30 , 30 , 30) ; font-family: &amp;#34;consolas&amp;#34; , &amp;#34;courier new&amp;#34; , monospace ; font-size: 14px ; line-height: 19px&quot;&gt;&lt;div&gt;c1= &lt;span style=&quot;color: #b5cea8&quot;&gt;0&lt;/span&gt;&lt;/div&gt;&lt;div&gt;c2= &lt;span style=&quot;color: #b5cea8&quot;&gt;0&lt;/span&gt;&lt;/div&gt;&lt;div&gt;c3= &lt;span style=&quot;color: #b5cea8&quot;&gt;0&lt;/span&gt;&lt;/div&gt;&lt;div&gt;c4= &lt;span style=&quot;color: #b5cea8&quot;&gt;0&lt;/span&gt;&lt;/div&gt;&lt;div&gt;c5= &lt;span style=&quot;color: #b5cea8&quot;&gt;0&lt;/span&gt;&lt;/div&gt;&lt;div&gt;c6= &lt;span style=&quot;color: #b5cea8&quot;&gt;0&lt;/span&gt;&lt;/div&gt;&lt;/div&gt;" style="rounded=0;whiteSpace=wrap;html=1;fillColor=#647687;fontColor=#ffffff;strokeColor=#314354;" vertex="1" parent="1">
                    <mxGeometry x="560" y="240" width="140" height="130" as="geometry"/>
                </mxCell>
                <mxCell id="16" style="edgeStyle=none;html=1;" edge="1" parent="1" source="13">
                    <mxGeometry relative="1" as="geometry">
                        <mxPoint x="510" y="590" as="targetPoint"/>
                        <Array as="points">
                            <mxPoint x="510" y="555"/>
                        </Array>
                    </mxGeometry>
                </mxCell>
                <mxCell id="26" style="edgeStyle=none;html=1;entryX=0.5;entryY=0;entryDx=0;entryDy=0;" edge="1" parent="1" source="13" target="15">
                    <mxGeometry relative="1" as="geometry">
                        <mxPoint x="820" y="550" as="targetPoint"/>
                        <Array as="points">
                            <mxPoint x="730" y="555"/>
                        </Array>
                    </mxGeometry>
                </mxCell>
                <mxCell id="13" value="j==1" style="rhombus;whiteSpace=wrap;html=1;fillColor=#e51400;fontColor=#ffffff;strokeColor=#B20000;" vertex="1" parent="1">
                    <mxGeometry x="590" y="520" width="80" height="70" as="geometry"/>
                </mxCell>
                <mxCell id="42" style="edgeStyle=none;html=1;" edge="1" parent="1" source="15">
                    <mxGeometry relative="1" as="geometry">
                        <mxPoint x="630" y="400" as="targetPoint"/>
                        <Array as="points">
                            <mxPoint x="740" y="1120"/>
                            <mxPoint x="40" y="1120"/>
                            <mxPoint x="40" y="400"/>
                        </Array>
                    </mxGeometry>
                </mxCell>
                <mxCell id="15" value="c1=c1+1" style="rounded=0;whiteSpace=wrap;html=1;fillColor=#76608a;fontColor=#ffffff;strokeColor=#432D57;" vertex="1" parent="1">
                    <mxGeometry x="670" y="580" width="120" height="60" as="geometry"/>
                </mxCell>
                <mxCell id="20" style="edgeStyle=none;html=1;entryX=0.5;entryY=0;entryDx=0;entryDy=0;" edge="1" parent="1" source="17" target="21">
                    <mxGeometry relative="1" as="geometry">
                        <mxPoint x="360" y="650" as="targetPoint"/>
                        <Array as="points">
                            <mxPoint x="390" y="625"/>
                        </Array>
                    </mxGeometry>
                </mxCell>
                <mxCell id="27" style="edgeStyle=none;html=1;entryX=0.442;entryY=-0.017;entryDx=0;entryDy=0;entryPerimeter=0;" edge="1" parent="1" source="17" target="19">
                    <mxGeometry relative="1" as="geometry">
                        <mxPoint x="610" y="620" as="targetPoint"/>
                        <Array as="points">
                            <mxPoint x="580" y="625"/>
                        </Array>
                    </mxGeometry>
                </mxCell>
                <mxCell id="17" value="j==2" style="rhombus;whiteSpace=wrap;html=1;fillColor=#e51400;fontColor=#ffffff;strokeColor=#B20000;" vertex="1" parent="1">
                    <mxGeometry x="470" y="590" width="80" height="70" as="geometry"/>
                </mxCell>
                <mxCell id="19" value="c2=c2+1" style="rounded=0;whiteSpace=wrap;html=1;fillColor=#76608a;fontColor=#ffffff;strokeColor=#432D57;" vertex="1" parent="1">
                    <mxGeometry x="530" y="660" width="120" height="60" as="geometry"/>
                </mxCell>
                <mxCell id="28" style="edgeStyle=none;html=1;entryX=0.5;entryY=0;entryDx=0;entryDy=0;" edge="1" parent="1" source="21" target="23">
                    <mxGeometry relative="1" as="geometry">
                        <mxPoint x="500" y="690" as="targetPoint"/>
                        <Array as="points">
                            <mxPoint x="460" y="690"/>
                        </Array>
                    </mxGeometry>
                </mxCell>
                <mxCell id="29" style="edgeStyle=none;html=1;" edge="1" parent="1" source="21" target="30">
                    <mxGeometry relative="1" as="geometry">
                        <mxPoint x="280" y="730" as="targetPoint"/>
                        <Array as="points">
                            <mxPoint x="280" y="690"/>
                        </Array>
                    </mxGeometry>
                </mxCell>
                <mxCell id="21" value="j==3" style="rhombus;whiteSpace=wrap;html=1;fillColor=#e51400;fontColor=#ffffff;strokeColor=#B20000;" vertex="1" parent="1">
                    <mxGeometry x="350" y="650" width="80" height="80" as="geometry"/>
                </mxCell>
                <mxCell id="23" value="c3=c3+1" style="rounded=0;whiteSpace=wrap;html=1;fillColor=#76608a;fontColor=#ffffff;strokeColor=#432D57;" vertex="1" parent="1">
                    <mxGeometry x="400" y="730" width="120" height="60" as="geometry"/>
                </mxCell>
                <mxCell id="31" style="edgeStyle=none;html=1;" edge="1" parent="1" source="30">
                    <mxGeometry relative="1" as="geometry">
                        <mxPoint x="380" y="830" as="targetPoint"/>
                        <Array as="points">
                            <mxPoint x="380" y="790"/>
                        </Array>
                    </mxGeometry>
                </mxCell>
                <mxCell id="33" style="edgeStyle=none;html=1;" edge="1" parent="1" source="30">
                    <mxGeometry relative="1" as="geometry">
                        <mxPoint x="180" y="870" as="targetPoint"/>
                        <Array as="points">
                            <mxPoint x="180" y="790"/>
                        </Array>
                    </mxGeometry>
                </mxCell>
                <mxCell id="30" value="j==4" style="rhombus;whiteSpace=wrap;html=1;fillColor=#e51400;fontColor=#ffffff;strokeColor=#B20000;" vertex="1" parent="1">
                    <mxGeometry x="240" y="750" width="80" height="80" as="geometry"/>
                </mxCell>
                <mxCell id="32" value="c4=c4+1" style="rounded=0;whiteSpace=wrap;html=1;fillColor=#76608a;fontColor=#ffffff;strokeColor=#432D57;" vertex="1" parent="1">
                    <mxGeometry x="320" y="830" width="120" height="60" as="geometry"/>
                </mxCell>
                <mxCell id="35" style="edgeStyle=none;html=1;" edge="1" parent="1" source="34" target="36">
                    <mxGeometry relative="1" as="geometry">
                        <mxPoint x="280" y="950" as="targetPoint"/>
                        <Array as="points">
                            <mxPoint x="280" y="910"/>
                        </Array>
                    </mxGeometry>
                </mxCell>
                <mxCell id="37" style="edgeStyle=none;html=1;" edge="1" parent="1" source="34" target="38">
                    <mxGeometry relative="1" as="geometry">
                        <mxPoint x="100" y="990" as="targetPoint"/>
                        <Array as="points">
                            <mxPoint x="100" y="910"/>
                        </Array>
                    </mxGeometry>
                </mxCell>
                <mxCell id="34" value="j==5" style="rhombus;whiteSpace=wrap;html=1;fillColor=#e51400;fontColor=#ffffff;strokeColor=#B20000;" vertex="1" parent="1">
                    <mxGeometry x="140" y="870" width="80" height="80" as="geometry"/>
                </mxCell>
                <mxCell id="36" value="c5=c5+1" style="rounded=0;whiteSpace=wrap;html=1;fillColor=#76608a;fontColor=#ffffff;strokeColor=#432D57;" vertex="1" parent="1">
                    <mxGeometry x="220" y="930" width="120" height="60" as="geometry"/>
                </mxCell>
                <mxCell id="39" style="edgeStyle=none;html=1;" edge="1" parent="1" source="38" target="40">
                    <mxGeometry relative="1" as="geometry">
                        <mxPoint x="190" y="1040" as="targetPoint"/>
                        <Array as="points">
                            <mxPoint x="190" y="990"/>
                        </Array>
                    </mxGeometry>
                </mxCell>
                <mxCell id="38" value="j==6" style="rhombus;whiteSpace=wrap;html=1;fillColor=#e51400;fontColor=#ffffff;strokeColor=#B20000;" vertex="1" parent="1">
                    <mxGeometry x="60" y="950" width="80" height="80" as="geometry"/>
                </mxCell>
                <mxCell id="40" value="c6=c6+1" style="rounded=0;whiteSpace=wrap;html=1;fillColor=#76608a;fontColor=#ffffff;strokeColor=#432D57;" vertex="1" parent="1">
                    <mxGeometry x="130" y="1020" width="120" height="60" as="geometry"/>
                </mxCell>
                <mxCell id="43" value="" style="endArrow=none;html=1;" edge="1" parent="1">
                    <mxGeometry width="50" height="50" relative="1" as="geometry">
                        <mxPoint x="160" y="1120" as="sourcePoint"/>
                        <mxPoint x="200" y="1080" as="targetPoint"/>
                        <Array as="points">
                            <mxPoint x="200" y="1120"/>
                        </Array>
                    </mxGeometry>
                </mxCell>
                <mxCell id="44" value="" style="endArrow=none;html=1;" edge="1" parent="1">
                    <mxGeometry width="50" height="50" relative="1" as="geometry">
                        <mxPoint x="240" y="1120" as="sourcePoint"/>
                        <mxPoint x="280" y="990" as="targetPoint"/>
                        <Array as="points">
                            <mxPoint x="280" y="1120"/>
                        </Array>
                    </mxGeometry>
                </mxCell>
                <mxCell id="45" value="" style="endArrow=none;html=1;" edge="1" parent="1">
                    <mxGeometry width="50" height="50" relative="1" as="geometry">
                        <mxPoint x="370" y="1120" as="sourcePoint"/>
                        <mxPoint x="390" y="890" as="targetPoint"/>
                        <Array as="points">
                            <mxPoint x="390" y="1120"/>
                        </Array>
                    </mxGeometry>
                </mxCell>
                <mxCell id="46" value="" style="endArrow=none;html=1;" edge="1" parent="1">
                    <mxGeometry width="50" height="50" relative="1" as="geometry">
                        <mxPoint x="420" y="1120" as="sourcePoint"/>
                        <mxPoint x="470" y="790" as="targetPoint"/>
                        <Array as="points">
                            <mxPoint x="470" y="1120"/>
                        </Array>
                    </mxGeometry>
                </mxCell>
                <mxCell id="47" value="" style="endArrow=none;html=1;" edge="1" parent="1">
                    <mxGeometry width="50" height="50" relative="1" as="geometry">
                        <mxPoint x="530" y="1120" as="sourcePoint"/>
                        <mxPoint x="600" y="720" as="targetPoint"/>
                        <Array as="points">
                            <mxPoint x="600" y="1120"/>
                        </Array>
                    </mxGeometry>
                </mxCell>
                <mxCell id="50" style="edgeStyle=none;html=1;" edge="1" parent="1" source="49" target="51">
                    <mxGeometry relative="1" as="geometry">
                        <mxPoint x="900" y="650" as="targetPoint"/>
                    </mxGeometry>
                </mxCell>
                <mxCell id="49" value="RESULTADOS" style="shape=document;whiteSpace=wrap;html=1;boundedLbl=1;fillColor=#6a00ff;strokeColor=#3700CC;fontColor=#ffffff;" vertex="1" parent="1">
                    <mxGeometry x="840" y="510" width="120" height="80" as="geometry"/>
                </mxCell>
                <mxCell id="51" value="FIN" style="ellipse;whiteSpace=wrap;html=1;fillColor=#1ba1e2;fontColor=#ffffff;strokeColor=#006EAF;" vertex="1" parent="1">
                    <mxGeometry x="840" y="640" width="120" height="80" as="geometry"/>
                </mxCell>
            </root>
        </mxGraphModel>
    </diagram>
</mxfile>